<mxfile host="app.diagrams.net" modified="2022-03-27T14:34:08.133Z" agent="5.0 (Windows)" etag="ju0u3vRu_Gck_KQ5kRR9" version="17.2.4" type="github">
  <diagram id="TwDQtL1a-Q_LjZ9nJ1sL" name="Page-1">
    <mxGraphModel dx="1422" dy="752" grid="1" gridSize="10" guides="1" tooltips="1" connect="1" arrows="1" fold="1" page="1" pageScale="1" pageWidth="827" pageHeight="1169" math="0" shadow="0">
      <root>
        <mxCell id="0" />
        <mxCell id="1" parent="0" />
        <mxCell id="TPubfxtY_UtqMb_NXA4G-2" style="edgeStyle=orthogonalEdgeStyle;rounded=0;orthogonalLoop=1;jettySize=auto;html=1;" parent="1" source="TPubfxtY_UtqMb_NXA4G-1" target="TPubfxtY_UtqMb_NXA4G-3" edge="1">
          <mxGeometry relative="1" as="geometry">
            <mxPoint x="470" y="350" as="targetPoint" />
          </mxGeometry>
        </mxCell>
        <mxCell id="TPubfxtY_UtqMb_NXA4G-1" value="" style="rounded=0;whiteSpace=wrap;html=1;" parent="1" vertex="1">
          <mxGeometry x="260" y="320" width="120" height="60" as="geometry" />
        </mxCell>
        <mxCell id="TPubfxtY_UtqMb_NXA4G-3" value="" style="rounded=0;whiteSpace=wrap;html=1;" parent="1" vertex="1">
          <mxGeometry x="500" y="320" width="120" height="60" as="geometry" />
        </mxCell>
      </root>
    </mxGraphModel>
  </diagram>
</mxfile>
